<svg id="visual" viewBox="0 0 900 600" width="900" height="600" xmlns="http://www.w3.org/2000/svg" xmlns:xlink="http://www.w3.org/1999/xlink" version="1.1"><rect x="0" y="0" width="900" height="600" fill="#000"></rect><path d="M0 442L129 372L257 387L386 445L514 368L643 371L771 355L900 434L900 601L771 601L643 601L514 601L386 601L257 601L129 601L0 601Z" fill="#111111"></path><path d="M0 404L129 415L257 396L386 439L514 405L643 408L771 437L900 461L900 601L771 601L643 601L514 601L386 601L257 601L129 601L0 601Z" fill="#0d0d0d"></path><path d="M0 471L129 467L257 479L386 450L514 450L643 437L771 491L900 459L900 601L771 601L643 601L514 601L386 601L257 601L129 601L0 601Z" fill="#090909"></path><path d="M0 486L129 519L257 518L386 525L514 506L643 499L771 508L900 536L900 601L771 601L643 601L514 601L386 601L257 601L129 601L0 601Z" fill="#050405"></path><path d="M0 567L129 525L257 566L386 540L514 534L643 544L771 546L900 528L900 601L771 601L643 601L514 601L386 601L257 601L129 601L0 601Z" fill="#000000"></path></svg>