<svg id="visual" viewBox="0 0 900 600" width="900" height="600" xmlns="http://www.w3.org/2000/svg" xmlns:xlink="http://www.w3.org/1999/xlink" version="1.1"><rect x="0" y="0" width="900" height="600" fill="#000"></rect><path d="M0 319L129 319L129 282L257 282L257 380L386 380L386 254L514 254L514 297L643 297L643 276L771 276L771 249L900 249L900 377L900 601L900 601L771 601L771 601L643 601L643 601L514 601L514 601L386 601L386 601L257 601L257 601L129 601L129 601L0 601Z" fill="#111111"></path><path d="M0 374L129 374L129 359L257 359L257 351L386 351L386 415L514 415L514 384L643 384L643 348L771 348L771 380L900 380L900 387L900 601L900 601L771 601L771 601L643 601L643 601L514 601L514 601L386 601L386 601L257 601L257 601L129 601L129 601L0 601Z" fill="#090909"></path><path d="M0 499L129 499L129 481L257 481L257 523L386 523L386 482L514 482L514 462L643 462L643 509L771 509L771 546L900 546L900 499L900 601L900 601L771 601L771 601L643 601L643 601L514 601L514 601L386 601L386 601L257 601L257 601L129 601L129 601L0 601Z" fill="#000000"></path></svg>